<svg width="32" height="32" viewBox="0 0 32 32" fill="none" xmlns="http://www.w3.org/2000/svg">
  <path d="M16 28C16 28 3 21 3 11C3 8.79086 3.89464 6.67249 5.46447 5.10266C7.0343 3.53284 9.15268 2.63819 11.3619 2.63819C13.5711 2.63819 15.6895 3.53284 17.2593 5.10266C17.6839 5.52723 18.0581 5.99694 18.3744 6.5H18.6256C18.9419 5.99694 19.3161 5.52723 19.7407 5.10266C21.3105 3.53284 23.4289 2.63819 25.6381 2.63819C27.8473 2.63819 29.9657 3.53284 31.5355 5.10266C33.1054 6.67249 34 8.79086 34 11C34 21 16 28 16 28Z" fill="#EC4899"/>
</svg>